<!-- Created with Inkscape (http://www.inkscape.org/) -->

<svg xmlns:rdf="http://www.w3.org/1999/02/22-rdf-syntax-ns#" xmlns="http://www.w3.org/2000/svg" xml:space="preserve" height="74.9" width="74.9" version="1.0" xmlns:cc="http://creativecommons.org/ns#" xmlns:dc="http://purl.org/dc/elements/1.1/" viewBox="8.4 8.9 57.5 57.5"><metadata><rdf:RDF><cc:Work rdf:about=""><dc:format>image/svg+xml</dc:format><dc:type rdf:resource="http://purl.org/dc/dcmitype/StillImage"/><dc:title/></cc:Work></rdf:RDF></metadata><defs>
		</defs>
		<circle cx="36.972" cy="37.45" r="28.563" fill="#047FBC"/><g transform="matrix(1.2723311,0,0,1.2723311,-9.9636266,-10.188258)">
	<polygon points="35.192,23.694,35.21,23.6,35.231,23.51,35.258,23.423,35.288,23.339,35.321,23.259,35.358,23.179,35.401,23.107,35.444,23.034,35.491,22.968,35.543,22.904,35.595,22.844,35.653,22.786,35.711,22.731,35.772,22.679,35.837,22.633,35.901,22.589,35.97,22.549,36.039,22.51,36.11,22.476,36.184,22.445,36.257,22.417,36.333,22.394,36.409,22.372,36.485,22.354,36.563,22.341,36.643,22.328,36.722,22.321,36.802,22.317,36.88,22.316,36.96,22.318,37.04,22.324,37.118,22.333,37.196,22.346,37.274,22.363,37.35,22.381,37.427,22.404,37.503,22.43,37.577,22.459,37.649,22.492,37.719,22.528,37.79,22.567,37.858,22.609,37.921,22.656,37.985,22.705,38.049,22.758,38.107,22.814,38.162,22.875,38.217,22.935,38.263,23.003,38.312,23.073,38.354,23.145,38.397,23.222,38.433,23.302,38.468,23.385,38.495,23.471,38.52,23.562,38.542,23.655,38.559,23.751,38.573,23.852,38.581,23.955,38.585,24.061,38.585,33.394,51.66,41.279,51.66,44.765,38.649,40.493,38.649,47.458,41.672,49.824,41.672,52.584,37.005,51.14,32.339,52.584,32.339,49.824,35.298,47.458,35.298,40.493,22.284,44.765,22.284,41.279,35.167,33.394,35.167,23.996,35.167,23.996,35.171,23.892,35.178,23.792" fill="#FFF"/>
</g>
	</svg>

